<svg class="th lm ml il" width="20" height="16" viewBox="0 0 20 16" fill="none" xmlns="http://www.w3.org/2000/svg">
                        <path d="M19.3153 2.18484C18.6155 2.4944 17.8733 2.6977 17.1134 2.78801C17.9144 2.30899 18.5138 1.55511 18.8001 0.666844C18.0484 1.11418 17.2244 1.42768 16.3654 1.59726C15.7885 0.979958 15.0238 0.57056 14.1901 0.432713C13.3565 0.294866 12.5007 0.436294 11.7558 0.835009C11.0108 1.23372 10.4185 1.86739 10.0708 2.63749C9.72313 3.40759 9.63963 4.27098 9.83327 5.09343C8.30896 5.01703 6.81775 4.62091 5.45645 3.93079C4.09516 3.24067 2.89423 2.27197 1.93161 1.08759C1.59088 1.67284 1.41182 2.33814 1.41278 3.01534C1.41278 4.34451 2.08928 5.51876 3.11778 6.20626C2.50912 6.1871 1.91386 6.02273 1.38161 5.72685V5.77451C1.38179 6.65974 1.68811 7.51766 2.24864 8.20282C2.80916 8.88797 3.58938 9.3582 4.45703 9.53376C3.89201 9.68688 3.29956 9.70945 2.72453 9.59976C2.96915 10.3617 3.44595 11.0281 4.08815 11.5056C4.73035 11.9831 5.50581 12.2478 6.30594 12.2627C5.51072 12.8872 4.60019 13.3489 3.62642 13.6213C2.65264 13.8938 1.63473 13.9716 0.630859 13.8503C2.38325 14.9773 4.4232 15.5756 6.50669 15.5737C13.5586 15.5737 17.415 9.73176 17.415 4.66535C17.415 4.50035 17.4104 4.33351 17.4031 4.17035C18.1537 3.62783 18.8016 2.95578 19.3162 2.18576L19.3153 2.18484Z" fill=""></path>
                      </svg>