<svg class="uh vl ml il" width="17" height="16" viewBox="0 0 17 16" fill="none" xmlns="http://www.w3.org/2000/svg">
                          <path d="M3.78353 2.16665C3.78331 2.60867 3.6075 3.03251 3.29478 3.34491C2.98207 3.65732 2.55806 3.8327 2.11603 3.83248C1.674 3.83226 1.25017 3.65645 0.937761 3.34373C0.625357 3.03102 0.449975 2.60701 0.450196 2.16498C0.450417 1.72295 0.626223 1.29912 0.93894 0.986712C1.25166 0.674307 1.67567 0.498925 2.1177 0.499146C2.55972 0.499367 2.98356 0.675173 3.29596 0.98789C3.60837 1.30061 3.78375 1.72462 3.78353 2.16665V2.16665ZM3.83353 5.06665H0.500195V15.5H3.83353V5.06665ZM9.1002 5.06665H5.78353V15.5H9.06686V10.025C9.06686 6.97498 13.0419 6.69165 13.0419 10.025V15.5H16.3335V8.89165C16.3335 3.74998 10.4502 3.94165 9.06686 6.46665L9.1002 5.06665V5.06665Z" fill=""></path>
                          </svg>