<svg class="th lm ml il" width="22" height="14" viewBox="0 0 22 14" fill="none" xmlns="http://www.w3.org/2000/svg">
                        <path d="M6.82308 0.904297C7.40883 0.904297 7.95058 0.95013 8.44558 1.0858C8.89476 1.16834 9.32351 1.33772 9.70783 1.58446C10.069 1.81088 10.3394 2.12896 10.5191 2.53688C10.6997 2.9448 10.7895 3.44438 10.7895 3.98796C10.7895 4.62321 10.6547 5.1668 10.3394 5.57471C10.069 5.98355 9.61799 6.34563 9.07716 6.61788C9.84349 6.84521 10.4292 7.25313 10.7895 7.79672C11.1507 8.34122 11.3762 9.02138 11.3762 9.7923C11.3762 10.4275 11.2405 10.9711 11.015 11.4249C10.7895 11.8786 10.4292 12.2865 10.0232 12.5588C9.58205 12.8506 9.09443 13.0651 8.58124 13.1931C8.04041 13.3297 7.49958 13.4205 6.95874 13.4205H0.916992V0.904297H6.82308ZM6.46191 5.98263C6.95783 5.98263 7.36391 5.84696 7.67924 5.62055C7.99458 5.39413 8.13024 4.9853 8.13024 4.48663C8.13024 4.21438 8.08441 3.94213 7.99458 3.76155C7.90474 3.58005 7.76908 3.44346 7.58941 3.3078C7.40883 3.21705 7.22824 3.1263 7.00274 3.08138C6.77724 3.03555 6.55266 3.03555 6.28133 3.03555H3.66699V5.98355H6.46283L6.46191 5.98263ZM6.59758 11.3341C6.86799 11.3341 7.13841 11.2883 7.36391 11.2434C7.59159 11.2001 7.80692 11.1071 7.99458 10.9711C8.17826 10.8384 8.33193 10.6685 8.44558 10.4725C8.53541 10.246 8.62616 9.9738 8.62616 9.65663C8.62616 9.02138 8.44558 8.56763 8.08533 8.25046C7.72416 7.97822 7.22824 7.84255 6.64249 7.84255H3.66699V11.335H6.59758V11.3341ZM15.2986 11.2883C15.6588 11.6513 16.1997 11.8328 16.9211 11.8328C17.417 11.8328 17.868 11.6971 18.2282 11.4707C18.5894 11.1985 18.8149 10.9262 18.9047 10.654H21.1139C20.7527 11.742 20.2119 12.513 19.4914 13.0116C18.7691 13.4654 17.9129 13.7376 16.8762 13.7376C16.2128 13.7396 15.5551 13.6165 14.9374 13.3746C14.3816 13.1661 13.886 12.8235 13.4946 12.3773C13.0759 11.9598 12.7665 11.4457 12.5935 10.8804C12.368 10.291 12.2772 9.65663 12.2772 8.93063C12.2772 8.25047 12.368 7.61613 12.5935 7.0258C12.8103 6.45755 13.1311 5.93468 13.5395 5.48396C13.9456 5.07605 14.4415 4.71396 14.9823 4.48663C15.5843 4.24469 16.2274 4.12143 16.8762 4.12363C17.6425 4.12363 18.319 4.26021 18.9047 4.57738C19.4914 4.89455 19.9415 5.25755 20.3027 5.80205C20.6711 6.32503 20.9456 6.90819 21.1139 7.52538C21.2037 8.15972 21.2487 8.79497 21.2037 9.52005H14.667C14.667 10.246 14.9374 10.9262 15.2986 11.2892V11.2883ZM18.1384 6.52713C17.8231 6.20996 17.3272 6.02846 16.7405 6.02846C16.3353 6.02846 16.0191 6.11922 15.7487 6.25488C15.4782 6.39147 15.2986 6.57297 15.118 6.75447C14.952 6.92978 14.8422 7.15067 14.8027 7.3888C14.7568 7.61613 14.7119 7.79672 14.7119 7.97822H18.7691C18.6792 7.29805 18.4537 6.84522 18.1384 6.52713ZM14.1711 1.76596H19.2201V2.99063H14.172V1.76596H14.1711Z" fill=""></path>
                      </svg>