<svg class="th lm ml il" width="19" height="18" viewBox="0 0 19 18" fill="none" xmlns="http://www.w3.org/2000/svg">
                        <path d="M4.36198 2.58327C4.36174 3.0695 4.16835 3.53572 3.82436 3.87937C3.48037 4.22301 3.01396 4.41593 2.52773 4.41569C2.0415 4.41545 1.57528 4.22206 1.23164 3.87807C0.887991 3.53408 0.69507 3.06767 0.695313 2.58144C0.695556 2.09521 0.888943 1.62899 1.23293 1.28535C1.57692 0.941701 2.04333 0.748781 2.52956 0.749024C3.01579 0.749267 3.48201 0.942654 3.82566 1.28664C4.1693 1.63063 4.36222 2.09704 4.36198 2.58327ZM4.41698 5.77327H0.750313V17.2499H4.41698V5.77327ZM10.2103 5.77327H6.56198V17.2499H10.1736V11.2274C10.1736 7.87244 14.5461 7.56077 14.5461 11.2274V17.2499H18.167V9.98077C18.167 4.32494 11.6953 4.53577 10.1736 7.31327L10.2103 5.77327Z" fill=""></path>
                      </svg>